<mxfile host="app.diagrams.net" agent="Mozilla/5.0 (Macintosh; Intel Mac OS X 10_15_7) AppleWebKit/537.36 (KHTML, like Gecko) Chrome/129.0.0.0 Safari/537.36" version="24.7.17">
  <diagram name="Page-1" id="J7svzsXxS-O0ttcFhhyu">
    <mxGraphModel dx="242" dy="303" grid="1" gridSize="10" guides="1" tooltips="1" connect="1" arrows="1" fold="1" page="1" pageScale="1" pageWidth="850" pageHeight="1100" math="0" shadow="0">
      <root>
        <mxCell id="0" />
        <mxCell id="1" parent="0" />
        <mxCell id="BEHm9YUiC9FpWBu7tDKx-1" value="11&lt;span style=&quot;color: rgba(0, 0, 0, 0); font-family: monospace; font-size: 0px; text-align: start; text-wrap: nowrap;&quot;&gt;%3CmxGraphModel%3E%3Croot%3E%3CmxCell%20id%3D%220%22%2F%3E%3CmxCell%20id%3D%221%22%20parent%3D%220%22%2F%3E%3CmxCell%20id%3D%222%22%20value%3D%224%22%20style%3D%22ellipse%3BwhiteSpace%3Dwrap%3Bhtml%3D1%3Baspect%3Dfixed%3B%22%20vertex%3D%221%22%20parent%3D%221%22%3E%3CmxGeometry%20x%3D%22190%22%20y%3D%22130%22%20width%3D%2230%22%20height%3D%2230%22%20as%3D%22geometry%22%2F%3E%3C%2FmxCell%3E%3C%2Froot%3E%3C%2FmxGraphModel%3E&lt;/span&gt;&lt;span style=&quot;color: rgba(0, 0, 0, 0); font-family: monospace; font-size: 0px; text-align: start; text-wrap: nowrap;&quot;&gt;%3CmxGraphModel%3E%3Croot%3E%3CmxCell%20id%3D%220%22%2F%3E%3CmxCell%20id%3D%221%22%20parent%3D%220%22%2F%3E%3CmxCell%20id%3D%222%22%20value%3D%224%22%20style%3D%22ellipse%3BwhiteSpace%3Dwrap%3Bhtml%3D1%3Baspect%3Dfixed%3B%22%20vertex%3D%221%22%20parent%3D%221%22%3E%3CmxGeometry%20x%3D%22190%22%20y%3D%22130%22%20width%3D%2230%22%20height%3D%2230%22%20as%3D%22geometry%22%2F%3E%3C%2FmxCell%3E%3C%2Froot%3E%3C%2FmxGraphModel%3E&lt;/span&gt;" style="ellipse;whiteSpace=wrap;html=1;aspect=fixed;" vertex="1" parent="1">
          <mxGeometry x="160" y="70" width="30" height="30" as="geometry" />
        </mxCell>
        <mxCell id="BEHm9YUiC9FpWBu7tDKx-4" value="10" style="ellipse;whiteSpace=wrap;html=1;aspect=fixed;" vertex="1" parent="1">
          <mxGeometry x="120" y="110" width="30" height="30" as="geometry" />
        </mxCell>
        <mxCell id="BEHm9YUiC9FpWBu7tDKx-5" value="5" style="ellipse;whiteSpace=wrap;html=1;aspect=fixed;" vertex="1" parent="1">
          <mxGeometry x="90" y="160" width="30" height="30" as="geometry" />
        </mxCell>
        <mxCell id="BEHm9YUiC9FpWBu7tDKx-6" value="3" style="ellipse;whiteSpace=wrap;html=1;aspect=fixed;" vertex="1" parent="1">
          <mxGeometry x="60" y="200" width="30" height="30" as="geometry" />
        </mxCell>
        <mxCell id="BEHm9YUiC9FpWBu7tDKx-7" value="4" style="ellipse;whiteSpace=wrap;html=1;aspect=fixed;" vertex="1" parent="1">
          <mxGeometry x="90" y="240" width="30" height="30" as="geometry" />
        </mxCell>
        <mxCell id="BEHm9YUiC9FpWBu7tDKx-8" value="7" style="ellipse;whiteSpace=wrap;html=1;aspect=fixed;" vertex="1" parent="1">
          <mxGeometry x="120" y="200" width="30" height="30" as="geometry" />
        </mxCell>
        <mxCell id="BEHm9YUiC9FpWBu7tDKx-9" value="15" style="ellipse;whiteSpace=wrap;html=1;aspect=fixed;" vertex="1" parent="1">
          <mxGeometry x="210" y="110" width="30" height="30" as="geometry" />
        </mxCell>
        <mxCell id="BEHm9YUiC9FpWBu7tDKx-10" value="12" style="ellipse;whiteSpace=wrap;html=1;aspect=fixed;" vertex="1" parent="1">
          <mxGeometry x="180" y="150" width="30" height="30" as="geometry" />
        </mxCell>
        <mxCell id="BEHm9YUiC9FpWBu7tDKx-11" value="19" style="ellipse;whiteSpace=wrap;html=1;aspect=fixed;" vertex="1" parent="1">
          <mxGeometry x="240" y="150" width="30" height="30" as="geometry" />
        </mxCell>
        <mxCell id="BEHm9YUiC9FpWBu7tDKx-12" value="18" style="ellipse;whiteSpace=wrap;html=1;aspect=fixed;direction=south;" vertex="1" parent="1">
          <mxGeometry x="210" y="190" width="30" height="30" as="geometry" />
        </mxCell>
        <mxCell id="BEHm9YUiC9FpWBu7tDKx-21" value="" style="endArrow=none;html=1;rounded=0;entryX=0;entryY=0.5;entryDx=0;entryDy=0;exitX=0.5;exitY=0;exitDx=0;exitDy=0;" edge="1" parent="1" source="BEHm9YUiC9FpWBu7tDKx-4" target="BEHm9YUiC9FpWBu7tDKx-1">
          <mxGeometry width="50" height="50" relative="1" as="geometry">
            <mxPoint x="150" y="200" as="sourcePoint" />
            <mxPoint x="200" y="150" as="targetPoint" />
          </mxGeometry>
        </mxCell>
        <mxCell id="BEHm9YUiC9FpWBu7tDKx-22" value="" style="endArrow=none;html=1;rounded=0;entryX=0.5;entryY=0;entryDx=0;entryDy=0;exitX=0.5;exitY=1;exitDx=0;exitDy=0;" edge="1" parent="1" source="BEHm9YUiC9FpWBu7tDKx-4" target="BEHm9YUiC9FpWBu7tDKx-5">
          <mxGeometry width="50" height="50" relative="1" as="geometry">
            <mxPoint x="156" y="124" as="sourcePoint" />
            <mxPoint x="170" y="100" as="targetPoint" />
          </mxGeometry>
        </mxCell>
        <mxCell id="BEHm9YUiC9FpWBu7tDKx-23" value="" style="endArrow=none;html=1;rounded=0;entryX=0.5;entryY=0;entryDx=0;entryDy=0;exitX=0.5;exitY=1;exitDx=0;exitDy=0;" edge="1" parent="1" source="BEHm9YUiC9FpWBu7tDKx-5" target="BEHm9YUiC9FpWBu7tDKx-6">
          <mxGeometry width="50" height="50" relative="1" as="geometry">
            <mxPoint x="134" y="146" as="sourcePoint" />
            <mxPoint x="124" y="160" as="targetPoint" />
          </mxGeometry>
        </mxCell>
        <mxCell id="BEHm9YUiC9FpWBu7tDKx-24" value="" style="endArrow=none;html=1;rounded=0;entryX=0.5;entryY=1;entryDx=0;entryDy=0;exitX=0.5;exitY=0;exitDx=0;exitDy=0;" edge="1" parent="1" source="BEHm9YUiC9FpWBu7tDKx-7" target="BEHm9YUiC9FpWBu7tDKx-6">
          <mxGeometry width="50" height="50" relative="1" as="geometry">
            <mxPoint x="104" y="186" as="sourcePoint" />
            <mxPoint x="96" y="204" as="targetPoint" />
          </mxGeometry>
        </mxCell>
        <mxCell id="BEHm9YUiC9FpWBu7tDKx-25" value="" style="endArrow=none;html=1;rounded=0;entryX=0.5;entryY=1;entryDx=0;entryDy=0;exitX=0.5;exitY=0;exitDx=0;exitDy=0;" edge="1" parent="1" source="BEHm9YUiC9FpWBu7tDKx-8" target="BEHm9YUiC9FpWBu7tDKx-5">
          <mxGeometry width="50" height="50" relative="1" as="geometry">
            <mxPoint x="104" y="244" as="sourcePoint" />
            <mxPoint x="96" y="226" as="targetPoint" />
          </mxGeometry>
        </mxCell>
        <mxCell id="BEHm9YUiC9FpWBu7tDKx-26" value="" style="endArrow=none;html=1;rounded=0;entryX=0.5;entryY=0;entryDx=0;entryDy=0;exitX=1;exitY=0.5;exitDx=0;exitDy=0;" edge="1" parent="1" source="BEHm9YUiC9FpWBu7tDKx-1" target="BEHm9YUiC9FpWBu7tDKx-9">
          <mxGeometry width="50" height="50" relative="1" as="geometry">
            <mxPoint x="144" y="204" as="sourcePoint" />
            <mxPoint x="126" y="186" as="targetPoint" />
          </mxGeometry>
        </mxCell>
        <mxCell id="BEHm9YUiC9FpWBu7tDKx-27" value="" style="endArrow=none;html=1;rounded=0;entryX=0.5;entryY=0;entryDx=0;entryDy=0;exitX=0.5;exitY=1;exitDx=0;exitDy=0;" edge="1" parent="1" source="BEHm9YUiC9FpWBu7tDKx-9" target="BEHm9YUiC9FpWBu7tDKx-11">
          <mxGeometry width="50" height="50" relative="1" as="geometry">
            <mxPoint x="198" y="101" as="sourcePoint" />
            <mxPoint x="214" y="124" as="targetPoint" />
          </mxGeometry>
        </mxCell>
        <mxCell id="BEHm9YUiC9FpWBu7tDKx-28" value="" style="endArrow=none;html=1;rounded=0;entryX=0.5;entryY=1;entryDx=0;entryDy=0;exitX=0.5;exitY=0;exitDx=0;exitDy=0;" edge="1" parent="1" source="BEHm9YUiC9FpWBu7tDKx-10" target="BEHm9YUiC9FpWBu7tDKx-9">
          <mxGeometry width="50" height="50" relative="1" as="geometry">
            <mxPoint x="225" y="150" as="sourcePoint" />
            <mxPoint x="231" y="168" as="targetPoint" />
          </mxGeometry>
        </mxCell>
        <mxCell id="BEHm9YUiC9FpWBu7tDKx-29" value="" style="endArrow=none;html=1;rounded=0;entryX=0.5;entryY=1;entryDx=0;entryDy=0;exitX=0;exitY=0.5;exitDx=0;exitDy=0;" edge="1" parent="1" source="BEHm9YUiC9FpWBu7tDKx-12" target="BEHm9YUiC9FpWBu7tDKx-11">
          <mxGeometry width="50" height="50" relative="1" as="geometry">
            <mxPoint x="196" y="174" as="sourcePoint" />
            <mxPoint x="214" y="146" as="targetPoint" />
          </mxGeometry>
        </mxCell>
      </root>
    </mxGraphModel>
  </diagram>
</mxfile>
